<svg xmlns="http://www.w3.org/2000/svg" viewBox="0 0 161.3 160.55"><defs><style>.cls-1{fill:#f4efef;}</style></defs><title>Asset 3</title><g id="Layer_2" data-name="Layer 2"><g id="Layer_1-2" data-name="Layer 1"><path class="cls-1" d="M161,33.05v94.26L80.47,160.55v-1.26q0-45.94,0-91.87a1.66,1.66,0,0,1,1.22-1.79l17.83-7.3c5.1-2.09,10.21-4.15,15.31-6.26,6-2.47,12-5,18-7.47,5.39-2.23,10.79-4.41,16.18-6.62,3.82-1.56,7.62-3.15,11.43-4.72A5.58,5.58,0,0,1,161,33.05Z"/><path class="cls-1" d="M72.31,160.43c-5.91-2.11-11.65-4.19-17.4-6.22-7.76-2.75-15.53-5.47-23.29-8.22-5.16-1.83-10.31-3.69-15.46-5.54S5.85,136.76.7,134.88c-.29-.1-.47-.53-.67-.84-.06-.1,0-.27,0-.42V40.34l5.74,2,23.38,8.26,18.52,6.62L69.35,65c.2.07.37.19.57.27.78.3,1.92.39,2.24.94.4.71.14,1.8.14,2.73q0,45,0,89.94Z"/><path class="cls-1" d="M161.3,25.14c-4.24,1.74-8.15,3.33-12.05,4.94L139.2,34.27q-6,2.49-12,4.95c-5.13,2.1-10.28,4.18-15.41,6.29-6,2.48-12,5-18,7.48q-8.26,3.42-16.56,6.79a1.64,1.64,0,0,1-1.07,0c-5.62-2-11.22-4-16.84-6-7-2.49-14-4.94-21-7.42L19.77,39.68Q10.41,36.35,1,33a7.86,7.86,0,0,1-1-.53C1.83,31.73,3.5,31,5.18,30.31l13.45-5.57c3.84-1.58,7.69-3.14,11.53-4.73,4.42-1.83,8.82-3.7,13.24-5.53,3.83-1.59,7.69-3.14,11.52-4.73C59,8.07,63,6.35,67.1,4.66Q72.71,2.32,78.33,0a1.35,1.35,0,0,1,.78.09L98.42,6l19.71,6,17.51,5.33L156,23.6C157.7,24.1,159.36,24.57,161.3,25.14Z"/></g></g></svg>