<svg xmlns="http://www.w3.org/2000/svg" viewBox="0 0 685.16 169.51"><defs><style>.cls-1{fill:#1c9de6;}</style></defs><title>Asset 5</title><g id="Layer_2" data-name="Layer 2"><g id="Layer_2-2" data-name="Layer 2"><path class="cls-1" d="M170,34.89v99.52L85,169.51v-1.33q0-48.51,0-97a1.74,1.74,0,0,1,1.29-1.88q9.41-3.85,18.82-7.71c5.39-2.21,10.79-4.39,16.17-6.61,6.33-2.62,12.65-5.28,19-7.89,5.69-2.35,11.39-4.65,17.09-7,4-1.65,8-3.33,12.06-5C169.53,35,169.74,35,170,34.89Z"/><path class="cls-1" d="M76.34,169.39C70.1,167.15,64.05,165,58,162.81c-8.19-2.9-16.4-5.77-24.59-8.67-5.45-1.93-10.89-3.9-16.33-5.85S6.17,144.39.74,142.41c-.3-.11-.5-.57-.71-.89-.06-.1,0-.29,0-.44V42.59l6.06,2.15q12.35,4.36,24.68,8.73,9.79,3.48,19.56,7l22.9,8.14c.21.08.4.21.6.29.82.32,2,.41,2.37,1s.15,1.89.15,2.87v96.63Z"/><path class="cls-1" d="M170.3,26.54l-12.72,5.22c-3.54,1.46-7.07,3-10.62,4.42q-6.33,2.63-12.67,5.22c-5.42,2.23-10.86,4.42-16.27,6.65-6.34,2.62-12.66,5.28-19,7.9q-8.75,3.61-17.49,7.16a1.75,1.75,0,0,1-1.13,0C74.48,61,68.56,58.83,62.63,56.72c-7.39-2.63-14.8-5.21-22.19-7.84-6.53-2.31-13-4.66-19.56-7l-19.78-7A9.61,9.61,0,0,1,0,34.31C1.93,33.5,3.7,32.74,5.47,32q7.09-3,14.2-5.88c4-1.67,8.12-3.31,12.17-5,4.67-1.93,9.31-3.91,14-5.84,4-1.68,8.12-3.32,12.17-5,4.29-1.78,8.57-3.6,12.85-5.38Q76.77,2.45,82.7,0a1.32,1.32,0,0,1,.82.09l20.39,6.22,20.81,6.34,18.49,5.63,21.54,6.59C166.5,25.45,168.26,25.94,170.3,26.54Z"/><path class="cls-1" d="M246.13,62.47a3,3,0,0,1,1.09.21,2.88,2.88,0,0,1,1.05.71l6.12,6.43a25.4,25.4,0,0,1-10.06,7.92A35.29,35.29,0,0,1,230,80.42a34.08,34.08,0,0,1-13.58-2.58,29.46,29.46,0,0,1-10.18-7.13,31.35,31.35,0,0,1-6.41-10.77A39.82,39.82,0,0,1,197.6,46.4a35.59,35.59,0,0,1,2.56-13.67A31.8,31.8,0,0,1,207.3,22a32.24,32.24,0,0,1,11-7,38.34,38.34,0,0,1,14.11-2.51,36.07,36.07,0,0,1,7.05.66,34.08,34.08,0,0,1,6.19,1.83,28.83,28.83,0,0,1,5.29,2.78,25.67,25.67,0,0,1,4.29,3.59l-5.2,7a6.24,6.24,0,0,1-1.19,1.16,3.07,3.07,0,0,1-1.92.53,3.37,3.37,0,0,1-1.55-.37,17.56,17.56,0,0,1-1.55-.89L242,27.57a14.06,14.06,0,0,0-2.33-1.14,20,20,0,0,0-3.15-.89,21.77,21.77,0,0,0-4.22-.36,19.28,19.28,0,0,0-7.67,1.48,16.69,16.69,0,0,0-6,4.25,19.72,19.72,0,0,0-3.88,6.68,26.23,26.23,0,0,0-1.39,8.81,27.38,27.38,0,0,0,1.39,9.09,19.92,19.92,0,0,0,3.79,6.69,16.06,16.06,0,0,0,5.59,4.13A16.76,16.76,0,0,0,231,67.72a32,32,0,0,0,3.83-.2,15.66,15.66,0,0,0,3.22-.71,14.78,14.78,0,0,0,2.83-1.3,18.38,18.38,0,0,0,2.72-2,5.61,5.61,0,0,1,1.18-.75A3.11,3.11,0,0,1,246.13,62.47Z"/><path class="cls-1" d="M261.42,79.68V32.34h8.4a6.76,6.76,0,0,1,1.76.19,3.07,3.07,0,0,1,1.19.57,2.48,2.48,0,0,1,.73,1,10.06,10.06,0,0,1,.43,1.56l.78,4.42a23.19,23.19,0,0,1,5.84-6.34,11.89,11.89,0,0,1,7.08-2.33,8.17,8.17,0,0,1,5.2,1.55L291,43.39a2,2,0,0,1-.73,1.35,2.45,2.45,0,0,1-1.46.39,9.41,9.41,0,0,1-1.82-.21,14,14,0,0,0-2.65-.2q-5.56,0-8.77,5.93v29Z"/><path class="cls-1" d="M318.49,92A4.05,4.05,0,0,1,314,94.7H303.42l9.13-19.17-18.9-43.19h12.51A3.73,3.73,0,0,1,310,34.81l7.76,20.41a45.08,45.08,0,0,1,1.78,5.66c.3-1,.63-1.94,1-2.88s.71-1.9,1-2.88l7-20.31a3.42,3.42,0,0,1,1.44-1.76,4.1,4.1,0,0,1,2.3-.71h11.42Z"/><path class="cls-1" d="M349.62,94.7V32.34h8.76a3.87,3.87,0,0,1,2.22.6,3.15,3.15,0,0,1,1.25,1.78l1,3.47a23.77,23.77,0,0,1,3-2.74,19,19,0,0,1,3.38-2.12,18.4,18.4,0,0,1,3.88-1.4,19.55,19.55,0,0,1,4.54-.5,14.64,14.64,0,0,1,6.85,1.64,15.8,15.8,0,0,1,5.43,4.75,23.91,23.91,0,0,1,3.58,7.6,36.65,36.65,0,0,1,1.31,10.21,31.46,31.46,0,0,1-1.49,9.86,24.8,24.8,0,0,1-4.15,7.85,19,19,0,0,1-6.39,5.2,18.09,18.09,0,0,1-8.24,1.88,16.3,16.3,0,0,1-6.21-1,16.75,16.75,0,0,1-4.57-2.84V94.7Zm23.1-52.45a12.11,12.11,0,0,0-2.81.3,10.73,10.73,0,0,0-2.33.84,9.2,9.2,0,0,0-2,1.39,21.59,21.59,0,0,0-1.83,1.94V66.81a8.92,8.92,0,0,0,3.47,2.49,11.08,11.08,0,0,0,3.93.71,8.25,8.25,0,0,0,3.6-.78,7.4,7.4,0,0,0,2.86-2.49,13.2,13.2,0,0,0,1.89-4.45,27.64,27.64,0,0,0,.69-6.66,31,31,0,0,0-.55-6.3,13.2,13.2,0,0,0-1.53-4.14,5.92,5.92,0,0,0-2.35-2.25A6.69,6.69,0,0,0,372.72,42.25Z"/><path class="cls-1" d="M419,80.42a16.58,16.58,0,0,1-6-1,11.46,11.46,0,0,1-7-7.14,17.14,17.14,0,0,1-.91-5.71V42.11h-4a2.53,2.53,0,0,1-2.64-2.78V33.8L406,32.34l2.78-11.55a2.82,2.82,0,0,1,3.11-2.19h7.39V32.44h11.51v9.67H419.28V65.62a4.43,4.43,0,0,0,.8,2.72,2.68,2.68,0,0,0,2.31,1.07,4.39,4.39,0,0,0,1.3-.16,5.23,5.23,0,0,0,.91-.36l.73-.37a2,2,0,0,1,.8-.16,1.64,1.64,0,0,1,1,.3,3.77,3.77,0,0,1,.8.94l4.29,6.71a19.68,19.68,0,0,1-6.16,3.08A24.75,24.75,0,0,1,419,80.42Z"/><path class="cls-1" d="M460,31.61a27.5,27.5,0,0,1,9.82,1.69,21.16,21.16,0,0,1,12.53,12.49,27.63,27.63,0,0,1,1.76,10.11,28.09,28.09,0,0,1-1.76,10.2,21.24,21.24,0,0,1-12.53,12.6A27.07,27.07,0,0,1,460,80.42a27.36,27.36,0,0,1-9.88-1.72,22.12,22.12,0,0,1-7.67-4.88,21.88,21.88,0,0,1-5-7.72,28.09,28.09,0,0,1-1.75-10.2,27.63,27.63,0,0,1,1.75-10.11,21.67,21.67,0,0,1,5-7.65,22,22,0,0,1,7.67-4.84A27.79,27.79,0,0,1,460,31.61Zm0,38.31q4.89,0,7.19-3.45T469.5,56q0-7-2.31-10.45T460,42.11q-5,0-7.35,3.43T450.33,56q0,7,2.32,10.48T460,69.92Z"/><path class="cls-1" d="M526,43.57a8,8,0,0,1-1.24,1.24,2.74,2.74,0,0,1-1.69.45,3.56,3.56,0,0,1-1.89-.5l-1.9-1.12a14.92,14.92,0,0,0-2.46-1.12,10.76,10.76,0,0,0-3.52-.5,9.81,9.81,0,0,0-4.49,1,8.25,8.25,0,0,0-3.13,2.74,12.66,12.66,0,0,0-1.83,4.36,26.39,26.39,0,0,0-.59,5.82q0,6.81,2.63,10.45A8.41,8.41,0,0,0,513.14,70a10.05,10.05,0,0,0,3.9-.62A11.94,11.94,0,0,0,519.49,68l1.85-1.39a3.38,3.38,0,0,1,2.12-.64A2.94,2.94,0,0,1,526,67.22l4.1,5.07a22.59,22.59,0,0,1-4.61,4.09,23.3,23.3,0,0,1-5,2.46,26,26,0,0,1-5.09,1.23,37.27,37.27,0,0,1-5,.35,21.25,21.25,0,0,1-8.28-1.65A20.14,20.14,0,0,1,495.27,74a22.86,22.86,0,0,1-4.75-7.69,28.83,28.83,0,0,1-1.76-10.41,29.16,29.16,0,0,1,1.53-9.56,21.81,21.81,0,0,1,4.52-7.72,21.18,21.18,0,0,1,7.4-5.14,26,26,0,0,1,10.2-1.87,25,25,0,0,1,9.77,1.78,23.53,23.53,0,0,1,7.58,5.21Z"/><path class="cls-1" d="M536.24,79.68V32.34h8.4a6.76,6.76,0,0,1,1.76.19,3,3,0,0,1,1.18.57,2.41,2.41,0,0,1,.74,1,10.06,10.06,0,0,1,.43,1.56l.78,4.42a23.19,23.19,0,0,1,5.84-6.34,11.89,11.89,0,0,1,7.08-2.33,8.17,8.17,0,0,1,5.2,1.55l-1.83,10.41a2,2,0,0,1-.73,1.35,2.45,2.45,0,0,1-1.46.39,9.41,9.41,0,0,1-1.82-.21,14,14,0,0,0-2.65-.2q-5.58,0-8.77,5.93v29Z"/><path class="cls-1" d="M605.72,79.68a6.67,6.67,0,0,1-3-.54A4.16,4.16,0,0,1,601,76.85l-1-2.6q-1.79,1.52-3.42,2.65a21.83,21.83,0,0,1-3.4,1.94A17.1,17.1,0,0,1,589.4,80a22.86,22.86,0,0,1-4.4.39,19.39,19.39,0,0,1-5.89-.85,12.3,12.3,0,0,1-4.5-2.5,11,11,0,0,1-2.85-4.1,14.8,14.8,0,0,1-1-5.65A11.94,11.94,0,0,1,572,62.14a12.74,12.74,0,0,1,4.43-4.83A28.18,28.18,0,0,1,585,53.67a51.78,51.78,0,0,1,13.47-1.47v-2q0-4.19-1.71-6.05a6.24,6.24,0,0,0-4.86-1.87,12.72,12.72,0,0,0-4.11.55A17.68,17.68,0,0,0,584.88,44c-.83.46-1.65.87-2.44,1.23a6.62,6.62,0,0,1-2.83.55,4.25,4.25,0,0,1-2.49-.71,5.31,5.31,0,0,1-1.62-1.75L573,38.92a28.68,28.68,0,0,1,9.51-5.64,33.46,33.46,0,0,1,11.21-1.85,20.68,20.68,0,0,1,7.74,1.39,16.55,16.55,0,0,1,5.84,3.88,16.88,16.88,0,0,1,3.68,5.92,21.24,21.24,0,0,1,1.28,7.48V79.68Zm-16.25-8.62a11.16,11.16,0,0,0,4.79-1A14.67,14.67,0,0,0,598.42,67V60.51a37.15,37.15,0,0,0-7,.55,16.56,16.56,0,0,0-4.33,1.39,5.26,5.26,0,0,0-2.22,1.88,4.54,4.54,0,0,0-.61,2.31,4,4,0,0,0,1.32,3.43A6.42,6.42,0,0,0,589.47,71.06Z"/><path class="cls-1" d="M624.35,79.68V42.07l-3.11-.64a6.54,6.54,0,0,1-2.58-1.14,2.76,2.76,0,0,1-1-2.29V32.44h6.67v-2.7a19.76,19.76,0,0,1,1.3-7.35,15.53,15.53,0,0,1,3.74-5.61,16.77,16.77,0,0,1,6-3.61,23.33,23.33,0,0,1,8-1.28,23,23,0,0,1,3.22.21,22.14,22.14,0,0,1,3.08.66l-.27,6.89a2.35,2.35,0,0,1-.39,1.21,2.76,2.76,0,0,1-.85.78,3.68,3.68,0,0,1-1.12.43,5.62,5.62,0,0,1-1.21.14,14,14,0,0,0-3.33.36A5.35,5.35,0,0,0,640,23.88a5.7,5.7,0,0,0-1.48,2.46A12.4,12.4,0,0,0,638,30.2v2.24h11.14v9.67H638.5V79.68Z"/><path class="cls-1" d="M671.92,80.42a16.55,16.55,0,0,1-6-1,11.79,11.79,0,0,1-4.34-2.78A11.93,11.93,0,0,1,659,72.29a16.89,16.89,0,0,1-.91-5.71V42.11h-4a2.55,2.55,0,0,1-2.65-2.78V33.8l7.54-1.46,2.78-11.55a2.81,2.81,0,0,1,3.1-2.19h7.4V32.44H683.7v9.67H672.19V65.62a4.43,4.43,0,0,0,.8,2.72,2.68,2.68,0,0,0,2.3,1.07,4.46,4.46,0,0,0,1.31-.16,5.23,5.23,0,0,0,.91-.36l.73-.37a2,2,0,0,1,.8-.16,1.66,1.66,0,0,1,1,.3,3.76,3.76,0,0,1,.79.94l4.3,6.71A19.63,19.63,0,0,1,679,79.39,24.63,24.63,0,0,1,671.92,80.42Z"/><rect class="cls-1" x="211.38" y="110.19" width="460" height="3"/><path class="cls-1" d="M245.3,146c.08-.23.17-.45.26-.66a4,4,0,0,1,.31-.62L257.55,124a.73.73,0,0,1,.33-.33,1.42,1.42,0,0,1,.46-.06h1.5v29.72H258V128c0-.37,0-.75.06-1.16l-11.7,20.78a.94.94,0,0,1-.84.55h-.34a1,1,0,0,1-.84-.55l-12-20.8c0,.41.07.8.07,1.18v25.33h-1.87V123.65h1.47a1.53,1.53,0,0,1,.47.06.76.76,0,0,1,.35.33l12,20.68A9,9,0,0,1,245.3,146Z"/><path class="cls-1" d="M271.12,125.26a1.54,1.54,0,0,1-.16.71,1.93,1.93,0,0,1-.41.57,1.87,1.87,0,0,1-1.3.55,1.79,1.79,0,0,1-.72-.15,1.67,1.67,0,0,1-.58-.4,1.73,1.73,0,0,1-.4-.57,1.67,1.67,0,0,1-.15-.71,1.79,1.79,0,0,1,.15-.72,1.75,1.75,0,0,1,.4-.6,1.82,1.82,0,0,1,.58-.4,1.79,1.79,0,0,1,.72-.15,1.71,1.71,0,0,1,.71.15,1.87,1.87,0,0,1,.59.4,1.94,1.94,0,0,1,.41.6A1.64,1.64,0,0,1,271.12,125.26Zm-.88,7.21v20.9h-2v-20.9Z"/><path class="cls-1" d="M277.63,153.37v-20.9h1.09a.56.56,0,0,1,.63.52l.19,3.16a11.5,11.5,0,0,1,3.33-2.91,8.25,8.25,0,0,1,4.23-1.11,8,8,0,0,1,3,.55,5.5,5.5,0,0,1,2.17,1.57,7.08,7.08,0,0,1,1.31,2.48,11.42,11.42,0,0,1,.44,3.28v13.36h-2V140a7.19,7.19,0,0,0-1.34-4.61,5,5,0,0,0-4.12-1.67,7.24,7.24,0,0,0-3.82,1.06,11.07,11.07,0,0,0-3.15,2.91v15.67Z"/><path class="cls-1" d="M308.24,132.13a8.77,8.77,0,0,1,3.27.61,7.31,7.31,0,0,1,2.6,1.78,8,8,0,0,1,1.72,2.87,11.16,11.16,0,0,1,.62,3.9,1.05,1.05,0,0,1-.13.63.51.51,0,0,1-.43.17H300.8v.4a14,14,0,0,0,.55,4.14,8.38,8.38,0,0,0,1.55,3,6.42,6.42,0,0,0,2.44,1.82,8,8,0,0,0,3.19.61,9.58,9.58,0,0,0,2.73-.35,10.85,10.85,0,0,0,1.95-.77,11.88,11.88,0,0,0,1.25-.78,1.45,1.45,0,0,1,.67-.35.49.49,0,0,1,.42.21l.55.67a5.6,5.6,0,0,1-1.34,1.18,9.15,9.15,0,0,1-1.85.93,13.88,13.88,0,0,1-2.18.63,12.37,12.37,0,0,1-2.34.23,9.91,9.91,0,0,1-3.91-.75,8.32,8.32,0,0,1-3-2.17,10.07,10.07,0,0,1-1.95-3.5,15,15,0,0,1-.69-4.74,12.85,12.85,0,0,1,.64-4.15,9.33,9.33,0,0,1,1.85-3.28,8.47,8.47,0,0,1,3-2.15A9.68,9.68,0,0,1,308.24,132.13Zm0,1.5a7.81,7.81,0,0,0-2.9.5,6.25,6.25,0,0,0-2.21,1.45,7.44,7.44,0,0,0-1.51,2.27,10.28,10.28,0,0,0-.76,3h13.76a9.44,9.44,0,0,0-.46-3,6.48,6.48,0,0,0-1.31-2.25,5.62,5.62,0,0,0-2-1.42A6.62,6.62,0,0,0,308.27,133.63Z"/><path class="cls-1" d="M320.74,151.59a1.76,1.76,0,0,1,1.83-1.79,1.68,1.68,0,0,1,1.39.62,2.54,2.54,0,0,1,.5,1.63,7.63,7.63,0,0,1-.22,1.75,9.09,9.09,0,0,1-.64,1.76,11,11,0,0,1-1,1.66,10.75,10.75,0,0,1-1.31,1.47l-.31-.32a.51.51,0,0,1-.17-.35.42.42,0,0,1,.06-.21,1.57,1.57,0,0,1,.15-.19c.14-.14.32-.35.54-.62a10.85,10.85,0,0,0,.65-1,8.78,8.78,0,0,0,.59-1.23,5.54,5.54,0,0,0,.34-1.43,1.91,1.91,0,0,1-.28.07l-.35,0a1.67,1.67,0,0,1-1.27-.53A1.88,1.88,0,0,1,320.74,151.59Z"/><path class="cls-1" d="M352,135.26l-.2.18a.4.4,0,0,1-.26.08,1.1,1.1,0,0,1-.58-.29,8.58,8.58,0,0,0-1-.62,8.35,8.35,0,0,0-1.52-.62,8.56,8.56,0,0,0-5.42.36,6.32,6.32,0,0,0-2.35,1.84,8.25,8.25,0,0,0-1.46,2.9,14.76,14.76,0,0,0,0,7.73,8.35,8.35,0,0,0,1.46,2.87,6.18,6.18,0,0,0,2.29,1.77,7.06,7.06,0,0,0,3,.61,7.66,7.66,0,0,0,2.53-.36,7.8,7.8,0,0,0,1.68-.77,7.52,7.52,0,0,0,1.05-.78,1.1,1.1,0,0,1,.62-.36.49.49,0,0,1,.42.21l.55.67a6,6,0,0,1-1.22,1.18,8.57,8.57,0,0,1-1.66.95,10.74,10.74,0,0,1-2,.62,11.76,11.76,0,0,1-2.25.22,9,9,0,0,1-3.65-.73,7.91,7.91,0,0,1-2.84-2.1,9.84,9.84,0,0,1-1.84-3.37,14.12,14.12,0,0,1-.67-4.54,14.33,14.33,0,0,1,.63-4.37,9.85,9.85,0,0,1,1.84-3.4,8.37,8.37,0,0,1,3-2.22,9.82,9.82,0,0,1,4-.79,9.54,9.54,0,0,1,3.62.65,9,9,0,0,1,2.76,1.77Z"/><path class="cls-1" d="M357.36,153.37v-20.9h1.05a.72.72,0,0,1,.51.15.7.7,0,0,1,.18.5l.17,4.41a10,10,0,0,1,2.69-4,6.14,6.14,0,0,1,4.14-1.44,6.69,6.69,0,0,1,3.25.78l-.27,1.39a.38.38,0,0,1-.42.33,1.25,1.25,0,0,1-.36-.08c-.15-.06-.35-.12-.58-.19a7.44,7.44,0,0,0-.85-.19,6.62,6.62,0,0,0-1.15-.08,5.38,5.38,0,0,0-3.9,1.47,10.43,10.43,0,0,0-2.47,4.24v13.59Z"/><path class="cls-1" d="M386.33,153.37a.72.72,0,0,1-.78-.58l-.3-2.67a21,21,0,0,1-1.71,1.51,9.61,9.61,0,0,1-1.77,1.13,8.62,8.62,0,0,1-2,.71,10.74,10.74,0,0,1-2.35.24,6.9,6.9,0,0,1-2.08-.32,5.24,5.24,0,0,1-1.79-1,4.83,4.83,0,0,1-1.25-1.67,5.88,5.88,0,0,1-.47-2.45,4.33,4.33,0,0,1,.76-2.46,6.22,6.22,0,0,1,2.36-2,15.7,15.7,0,0,1,4.14-1.35,37,37,0,0,1,6.08-.59v-2.18a7.06,7.06,0,0,0-1.25-4.47,4.47,4.47,0,0,0-3.71-1.56,7,7,0,0,0-2.57.42,9.41,9.41,0,0,0-1.8.92,10.82,10.82,0,0,0-1.19.93,1.31,1.31,0,0,1-.78.42.68.68,0,0,1-.63-.38l-.36-.61a12.1,12.1,0,0,1,3.45-2.48,9.58,9.58,0,0,1,4.09-.84,7.42,7.42,0,0,1,2.94.54,5.38,5.38,0,0,1,2.09,1.53,6.62,6.62,0,0,1,1.25,2.42,11.09,11.09,0,0,1,.42,3.16v13.61Zm-8.41-1.11a9.24,9.24,0,0,0,2.24-.26,8.26,8.26,0,0,0,1.89-.74,9.07,9.07,0,0,0,1.63-1.12c.5-.44,1-.91,1.49-1.41v-5.44a37.23,37.23,0,0,0-5.14.45,15.09,15.09,0,0,0-3.55,1,5.29,5.29,0,0,0-2.06,1.5,3.2,3.2,0,0,0-.66,2,4.36,4.36,0,0,0,.35,1.81,3.72,3.72,0,0,0,.91,1.26,3.52,3.52,0,0,0,1.33.73A5.47,5.47,0,0,0,377.92,152.26Z"/><path class="cls-1" d="M394.2,153.37V134.65l-2.94-.19c-.4,0-.61-.2-.61-.52v-.82h3.55v-2.65a9.69,9.69,0,0,1,.47-3.14,6.19,6.19,0,0,1,1.3-2.26,5.25,5.25,0,0,1,2-1.35,7.3,7.3,0,0,1,2.61-.45,8.5,8.5,0,0,1,1.32.11,5.52,5.52,0,0,1,1.16.33l-.06,1c0,.2-.15.3-.4.3a5.07,5.07,0,0,1-.68-.06,6.39,6.39,0,0,0-1.06-.07,5.84,5.84,0,0,0-1.91.31,3.66,3.66,0,0,0-1.5,1,4.6,4.6,0,0,0-1,1.75,8.87,8.87,0,0,0-.34,2.66v2.58h6.78v1.49H396.2v18.76Z"/><path class="cls-1" d="M412.65,153.71a4.46,4.46,0,0,1-3.3-1.18,5,5,0,0,1-1.17-3.63V134.61h-3a.6.6,0,0,1-.38-.12.45.45,0,0,1-.14-.36v-.78l3.57-.25.5-7.48a.56.56,0,0,1,.15-.34.5.5,0,0,1,.37-.14h.93v8h6.58v1.49h-6.58v14.18a4.31,4.31,0,0,0,.22,1.48,2.69,2.69,0,0,0,.61,1,2.28,2.28,0,0,0,.91.59,3.25,3.25,0,0,0,1.14.19,3.4,3.4,0,0,0,1.3-.22,6,6,0,0,0,.95-.48,7.26,7.26,0,0,0,.65-.49.76.76,0,0,1,.4-.22.45.45,0,0,1,.33.21l.55.89a5.81,5.81,0,0,1-2,1.41A6.28,6.28,0,0,1,412.65,153.71Z"/><path class="cls-1" d="M420.84,151.59a1.78,1.78,0,0,1,1.83-1.79,1.7,1.7,0,0,1,1.4.62,2.53,2.53,0,0,1,.49,1.63,7.11,7.11,0,0,1-.22,1.75,9.09,9.09,0,0,1-.64,1.76,11,11,0,0,1-1,1.66,11.39,11.39,0,0,1-1.3,1.47l-.32-.32a.49.49,0,0,1-.16-.35.42.42,0,0,1,.06-.21.7.7,0,0,1,.15-.19c.14-.14.31-.35.53-.62a8.85,8.85,0,0,0,1.24-2.2,5.55,5.55,0,0,0,.35-1.43l-.29.07-.34,0a1.67,1.67,0,0,1-1.27-.53A1.88,1.88,0,0,1,420.84,151.59Z"/><path class="cls-1" d="M444,153.71a4.43,4.43,0,0,1-3.3-1.18,4.91,4.91,0,0,1-1.18-3.63V134.61h-3a.58.58,0,0,1-.38-.12.46.46,0,0,1-.15-.36v-.78l3.57-.25.5-7.48a.63.63,0,0,1,.16-.34.49.49,0,0,1,.36-.14h.94v8h6.57v1.49h-6.57v14.18a4.31,4.31,0,0,0,.22,1.48,2.57,2.57,0,0,0,.61,1,2.21,2.21,0,0,0,.91.59,3.23,3.23,0,0,0,1.13.19,3.46,3.46,0,0,0,1.31-.22,5.86,5.86,0,0,0,.94-.48,5.18,5.18,0,0,0,.65-.49.8.8,0,0,1,.4-.22.45.45,0,0,1,.34.21l.55.89a5.9,5.9,0,0,1-2,1.41A6.28,6.28,0,0,1,444,153.71Z"/><path class="cls-1" d="M453.32,153.37v-20.9h1.05a.75.75,0,0,1,.52.15.7.7,0,0,1,.17.5l.17,4.41a10,10,0,0,1,2.69-4,6.14,6.14,0,0,1,4.14-1.44,7.29,7.29,0,0,1,1.74.2,7.13,7.13,0,0,1,1.52.58l-.28,1.39a.38.38,0,0,1-.42.33,1.27,1.27,0,0,1-.35-.08l-.58-.19a8,8,0,0,0-.85-.19,6.74,6.74,0,0,0-1.16-.08,5.36,5.36,0,0,0-3.89,1.47,10.43,10.43,0,0,0-2.47,4.24v13.59Z"/><path class="cls-1" d="M482.29,153.37a.72.72,0,0,1-.78-.58l-.29-2.67a21,21,0,0,1-1.71,1.51,9.68,9.68,0,0,1-1.78,1.13,8.54,8.54,0,0,1-2,.71,10.84,10.84,0,0,1-2.36.24,7,7,0,0,1-2.08-.32,5.2,5.2,0,0,1-1.78-1,4.71,4.71,0,0,1-1.25-1.67,5.73,5.73,0,0,1-.47-2.45,4.39,4.39,0,0,1,.75-2.46,6.26,6.26,0,0,1,2.37-2,15.74,15.74,0,0,1,4.13-1.35,37.15,37.15,0,0,1,6.09-.59v-2.18a7.06,7.06,0,0,0-1.25-4.47,4.48,4.48,0,0,0-3.71-1.56,7,7,0,0,0-2.58.42,9.6,9.6,0,0,0-1.79.92,12.14,12.14,0,0,0-1.2.93,1.31,1.31,0,0,1-.78.42.68.68,0,0,1-.63-.38l-.35-.61a12.2,12.2,0,0,1,3.44-2.48,9.63,9.63,0,0,1,4.1-.84,7.42,7.42,0,0,1,2.94.54,5.38,5.38,0,0,1,2.09,1.53,6.77,6.77,0,0,1,1.25,2.42,11.09,11.09,0,0,1,.42,3.16v13.61Zm-8.4-1.11a9.24,9.24,0,0,0,2.24-.26,8.64,8.64,0,0,0,1.89-.74,9,9,0,0,0,1.62-1.12q.76-.66,1.5-1.41v-5.44a37.08,37.08,0,0,0-5.14.45,15,15,0,0,0-3.55,1,5.22,5.22,0,0,0-2.06,1.5,3.2,3.2,0,0,0-.66,2,4.21,4.21,0,0,0,.35,1.81,3.51,3.51,0,0,0,2.23,2A5.54,5.54,0,0,0,473.89,152.26Z"/><path class="cls-1" d="M504.22,153.37a.55.55,0,0,1-.6-.54l-.22-3.3a11,11,0,0,1-3.25,3,7.9,7.9,0,0,1-4.17,1.12,7.3,7.3,0,0,1-6-2.67q-2.14-2.67-2.15-8a14.69,14.69,0,0,1,.6-4.27,10.23,10.23,0,0,1,1.76-3.45A8.53,8.53,0,0,1,493,133a8.69,8.69,0,0,1,3.91-.84,8.15,8.15,0,0,1,3.68.79,7.63,7.63,0,0,1,2.69,2.3V122.81h2v30.56ZM496.55,152a6.9,6.9,0,0,0,3.76-1.07,10.68,10.68,0,0,0,3-3v-11a7.44,7.44,0,0,0-9.24-2.58,6.38,6.38,0,0,0-2.32,1.9,8.37,8.37,0,0,0-1.41,2.94,14,14,0,0,0-.47,3.77q0,4.67,1.72,6.86A5.91,5.91,0,0,0,496.55,152Z"/><path class="cls-1" d="M520.21,132.13a8.73,8.73,0,0,1,3.27.61,7.31,7.31,0,0,1,2.6,1.78,8.13,8.13,0,0,1,1.73,2.87,11.4,11.4,0,0,1,.62,3.9,1,1,0,0,1-.14.63.51.51,0,0,1-.43.17H512.77v.4a14.32,14.32,0,0,0,.55,4.14,8.24,8.24,0,0,0,1.56,3,6.39,6.39,0,0,0,2.43,1.82,8,8,0,0,0,3.2.61,9.58,9.58,0,0,0,2.73-.35,10.43,10.43,0,0,0,1.94-.77,10.91,10.91,0,0,0,1.25-.78,1.45,1.45,0,0,1,.67-.35.47.47,0,0,1,.42.21l.55.67a5.6,5.6,0,0,1-1.34,1.18,9.06,9.06,0,0,1-1.84.93,14,14,0,0,1-2.19.63,12.37,12.37,0,0,1-2.34.23,9.91,9.91,0,0,1-3.91-.75,8.32,8.32,0,0,1-3-2.17,10.07,10.07,0,0,1-1.95-3.5,15,15,0,0,1-.69-4.74,12.85,12.85,0,0,1,.64-4.15,9.49,9.49,0,0,1,1.85-3.28,8.47,8.47,0,0,1,3-2.15A9.71,9.71,0,0,1,520.21,132.13Zm0,1.5a7.75,7.75,0,0,0-2.89.5,6.16,6.16,0,0,0-2.21,1.45,7.29,7.29,0,0,0-1.52,2.27,10.28,10.28,0,0,0-.76,3h13.76a9.17,9.17,0,0,0-.46-3,6.46,6.46,0,0,0-1.3-2.25,5.57,5.57,0,0,0-2-1.42A6.62,6.62,0,0,0,520.24,133.63Z"/><path class="cls-1" d="M532.71,151.59a1.78,1.78,0,0,1,1.83-1.79,1.7,1.7,0,0,1,1.4.62,2.59,2.59,0,0,1,.49,1.63,7.11,7.11,0,0,1-.22,1.75,9.09,9.09,0,0,1-.64,1.76,11,11,0,0,1-1,1.66,11.39,11.39,0,0,1-1.3,1.47l-.32-.32a.51.51,0,0,1-.17-.35.44.44,0,0,1,.07-.21.94.94,0,0,1,.14-.19c.14-.14.32-.35.54-.62a9.06,9.06,0,0,0,.65-1,8.78,8.78,0,0,0,.59-1.23,6,6,0,0,0,.35-1.43l-.29.07-.34,0a1.65,1.65,0,0,1-1.27-.53A1.88,1.88,0,0,1,532.71,151.59Z"/><path class="cls-1" d="M553.68,125.26a1.54,1.54,0,0,1-.16.71,1.93,1.93,0,0,1-.41.57,1.87,1.87,0,0,1-1.3.55,1.79,1.79,0,0,1-.72-.15,1.67,1.67,0,0,1-.58-.4,1.73,1.73,0,0,1-.4-.57,1.67,1.67,0,0,1-.15-.71,1.79,1.79,0,0,1,.15-.72,1.75,1.75,0,0,1,.4-.6,1.82,1.82,0,0,1,.58-.4,1.79,1.79,0,0,1,.72-.15,1.71,1.71,0,0,1,.71.15,1.87,1.87,0,0,1,.59.4,1.94,1.94,0,0,1,.41.6A1.64,1.64,0,0,1,553.68,125.26Zm-.88,7.21v20.9h-2v-20.9Z"/><path class="cls-1" d="M560.19,153.37v-20.9h1.09a.56.56,0,0,1,.63.52l.19,3.16a11.5,11.5,0,0,1,3.33-2.91,8.26,8.26,0,0,1,4.24-1.11,7.91,7.91,0,0,1,3,.55,5.61,5.61,0,0,1,2.18,1.57,7.23,7.23,0,0,1,1.3,2.48,11.42,11.42,0,0,1,.44,3.28v13.36h-2V140a7.13,7.13,0,0,0-1.34-4.61,5,5,0,0,0-4.12-1.67,7.24,7.24,0,0,0-3.82,1.06,11.07,11.07,0,0,0-3.15,2.91v15.67Z"/><path class="cls-1" d="M590.11,153.37h-1.77l-8.82-20.9h1.57a.68.68,0,0,1,.48.16,1.19,1.19,0,0,1,.26.34l6.89,16.5a5.54,5.54,0,0,1,.31.92l.21.88c.07-.29.15-.59.23-.89a5.38,5.38,0,0,1,.3-.91L596.7,133a.94.94,0,0,1,.29-.36.62.62,0,0,1,.43-.14h1.51Z"/><path class="cls-1" d="M610.36,132.13a8.8,8.8,0,0,1,3.27.61,7.31,7.31,0,0,1,2.6,1.78,8,8,0,0,1,1.72,2.87,11.16,11.16,0,0,1,.62,3.9,1.05,1.05,0,0,1-.13.63.51.51,0,0,1-.43.17H602.92v.4a14,14,0,0,0,.55,4.14,8.38,8.38,0,0,0,1.55,3,6.42,6.42,0,0,0,2.44,1.82,8,8,0,0,0,3.19.61,9.58,9.58,0,0,0,2.73-.35,10.85,10.85,0,0,0,2-.77,11.88,11.88,0,0,0,1.25-.78,1.45,1.45,0,0,1,.67-.35.49.49,0,0,1,.42.21l.55.67a5.8,5.8,0,0,1-1.34,1.18,9.15,9.15,0,0,1-1.85.93,13.88,13.88,0,0,1-2.18.63,12.37,12.37,0,0,1-2.34.23,9.88,9.88,0,0,1-3.91-.75,8.32,8.32,0,0,1-3-2.17,10.07,10.07,0,0,1-2-3.5,15,15,0,0,1-.69-4.74,12.85,12.85,0,0,1,.64-4.15,9.33,9.33,0,0,1,1.85-3.28,8.47,8.47,0,0,1,3-2.15A9.68,9.68,0,0,1,610.36,132.13Zm0,1.5a7.81,7.81,0,0,0-2.9.5,6.25,6.25,0,0,0-2.21,1.45,7.44,7.44,0,0,0-1.51,2.27,10.28,10.28,0,0,0-.76,3h13.76a9.16,9.16,0,0,0-.47-3,6.31,6.31,0,0,0-1.3-2.25,5.62,5.62,0,0,0-2-1.42A6.62,6.62,0,0,0,610.39,133.63Z"/><path class="cls-1" d="M635.46,135.07a.47.47,0,0,1-.46.3,1.21,1.21,0,0,1-.6-.26,8.43,8.43,0,0,0-1-.59,7.19,7.19,0,0,0-3.61-.85,6.51,6.51,0,0,0-2.07.32,5.27,5.27,0,0,0-1.59.87,3.9,3.9,0,0,0-1,1.27,3.25,3.25,0,0,0-.37,1.52,2.62,2.62,0,0,0,.5,1.63,4.31,4.31,0,0,0,1.33,1.11,9.38,9.38,0,0,0,1.86.8l2.13.67q1.1.33,2.13.75a7.54,7.54,0,0,1,1.86,1,4.6,4.6,0,0,1,1.32,1.49,4.21,4.21,0,0,1,.51,2.14,6.64,6.64,0,0,1-.49,2.54,5.76,5.76,0,0,1-1.43,2,7.06,7.06,0,0,1-2.3,1.37,9.1,9.1,0,0,1-3.11.5,9.6,9.6,0,0,1-3.81-.7,10.89,10.89,0,0,1-2.85-1.84l.48-.72a.94.94,0,0,1,.23-.25.62.62,0,0,1,.36-.08,1.17,1.17,0,0,1,.67.33,7.94,7.94,0,0,0,1,.73,8.34,8.34,0,0,0,1.6.72,7,7,0,0,0,2.36.34,6.66,6.66,0,0,0,2.33-.37,4.72,4.72,0,0,0,1.68-1,4.09,4.09,0,0,0,1-1.48,4.72,4.72,0,0,0,.35-1.79,2.94,2.94,0,0,0-.5-1.75,4.33,4.33,0,0,0-1.33-1.17,8.36,8.36,0,0,0-1.86-.82c-.69-.23-1.41-.45-2.14-.68s-1.45-.47-2.14-.73a7.52,7.52,0,0,1-1.86-1,4.94,4.94,0,0,1-1.33-1.48,4.37,4.37,0,0,1-.5-2.18,5,5,0,0,1,.48-2.14,5.46,5.46,0,0,1,1.38-1.81,6.72,6.72,0,0,1,2.17-1.23,8.45,8.45,0,0,1,2.88-.47,9.56,9.56,0,0,1,3.39.56,8.2,8.2,0,0,1,2.72,1.69Z"/><path class="cls-1" d="M647.71,153.71a4.46,4.46,0,0,1-3.3-1.18,5,5,0,0,1-1.17-3.63V134.61h-3a.6.6,0,0,1-.38-.12.49.49,0,0,1-.14-.36v-.78l3.57-.25.5-7.48a.56.56,0,0,1,.15-.34.5.5,0,0,1,.37-.14h.93v8h6.58v1.49h-6.58v14.18a4.57,4.57,0,0,0,.22,1.48,2.69,2.69,0,0,0,.61,1,2.31,2.31,0,0,0,.92.59,3.19,3.19,0,0,0,1.13.19,3.4,3.4,0,0,0,1.3-.22,6,6,0,0,0,1-.48,7.26,7.26,0,0,0,.65-.49.76.76,0,0,1,.4-.22.45.45,0,0,1,.33.21l.55.89a5.81,5.81,0,0,1-2,1.41A6.28,6.28,0,0,1,647.71,153.71Z"/></g></g></svg>